<?xml version="1.0" encoding="utf-8"?>
<!-- Generator: Adobe Illustrator 16.0.0, SVG Export Plug-In . SVG Version: 6.00 Build 0)  -->
<!DOCTYPE svg PUBLIC "-//W3C//DTD SVG 1.1//EN" "http://www.w3.org/Graphics/SVG/1.1/DTD/svg11.dtd">
<svg version="1.1" id="Layer_1" xmlns="http://www.w3.org/2000/svg" xmlns:xlink="http://www.w3.org/1999/xlink" x="0px" y="0px"
	 width="24px" height="24px" viewBox="0 0 24 24" enable-background="new 0 0 24 24" xml:space="preserve">
<path fill="#FFFFFF" d="M23.822,20.88l-6.354-6.354c0.93-1.465,1.467-3.199,1.467-5.059C18.938,4.248,14.689,0,9.468,0
	C4.247,0,0,4.248,0,9.468c0,5.222,4.247,9.47,9.468,9.47c1.768,0,3.421-0.487,4.839-1.334L20.703,24L23.822,20.88z M3.528,9.468
	c0-3.273,2.665-5.938,5.939-5.938c3.275,0,5.94,2.664,5.94,5.938c0,3.275-2.665,5.939-5.94,5.939
	C6.193,15.407,3.528,12.743,3.528,9.468L3.528,9.468z"/>
</svg>
